Coordinates
nRows=5
nColumns=24

# SIMM Motion File Header:
name Coordinates
datacolumns 24
datarows 5
otherdata 1
range 0.62933000000000006000 0.63332999999999995000
endheader
time	pelvis_tx	pelvis_ty	pelvis_tz	pelvis_tilt	pelvis_list	pelvis_rotation	hip_flexion_r	hip_adduction_r	hip_rotation_r	knee_angle_r	ankle_angle_r	subtalar_angle_r	mtp_angle_r	hip_flexion_l	hip_adduction_l	hip_rotation_l	knee_angle_l	ankle_angle_l	subtalar_angle_l	mtp_angle_l	lumbar_extension	lumbar_bending	lumbar_rotation
      0.62933000000000006000	     -1.32983777555533880000	      0.68471812387582320000	      0.27295073220760319000	     10.54894292979772400000	      1.07869624059537440000	     -0.09597435156632125300	    -10.77564449662209300000	      3.03682439114699100000	    -12.26371364097739800000	    -13.05786569152624000000	     13.62064999507251900000	      0.00000000000012828509	     -0.00000000000012400650	     14.84136436473895200000	     -0.35222401990991520000	     -5.18933072300887410000	    -12.85860386084774400000	     -2.48030776771513130000	     -0.00000000000002233262	      0.00000000000016750354	    -30.70256824582507700000	      1.93078613928133010000	      5.61758244232621970000
      0.63033000000000006000	     -1.32931258950378320000	      0.68462786853131186000	      0.27297330648574125000	     10.54303517974164700000	      1.07275746472848450000	     -0.10118395827820385000	    -10.81871927648680100000	      3.03864168276521960000	    -12.27806970934922100000	    -13.05871967850935700000	     13.65565655275199600000	      0.00000000000012859950	     -0.00000000000012461770	     14.85599622016680900000	     -0.33614334740919816000	     -5.24472234767309240000	    -12.64048569016768700000	     -2.48820975395014130000	     -0.00000000000002223578	      0.00000000000016834990	    -30.69779993589759900000	      1.92194884647602060000	      5.62456472823352450000
      0.63133000000000006000	     -1.32878498993644120000	      0.68453658596383093000	      0.27299575546390920000	     10.53706513967057700000	      1.06676174113974810000	     -0.10616902369455360000	    -10.86166919168279100000	      3.04050084834416400000	    -12.29232217569153600000	    -13.06017735921566600000	     13.69143923501288500000	      0.00000000000012889178	     -0.00000000000012519180	     14.87007833865887800000	     -0.31980740264678414000	     -5.29954084754270480000	    -12.42425634045021900000	     -2.49908292502175260000	     -0.00000000000002214832	      0.00000000000016918477	    -30.69295033972859300000	      1.91294589937869080000	      5.63152006638771320000
      0.63233000000000006000	     -1.32825739036909950000	      0.68444530339635001000	      0.27301820444207714000	     10.53109509959950800000	      1.06076601755101160000	     -0.11115408911090334000	    -10.90461910687878200000	      3.04236001392310840000	    -12.30657464203385300000	    -13.06163503992197600000	     13.72722191727377300000	      0.00000000000012918405	     -0.00000000000012576590	     14.88416045715095000000	     -0.30347145788437008000	     -5.35435934741231630000	    -12.20802699073275100000	     -2.50995609609336420000	     -0.00000000000002206085	      0.00000000000017001964	    -30.68810074355958800000	      1.90394295228136110000	      5.63847540454190190000
      0.63332999999999995000	     -1.32772869029823640000	      0.68435357696993693000	      0.27304058275441961000	     10.52511442932742000000	      1.05473062587704700000	     -0.11602986488644952000	    -10.94754505062895700000	      3.04426156757199000000	    -12.32077125398719800000	    -13.06332576152213500000	     13.76340143859054500000	      0.00000000000012946298	     -0.00000000000012631686	     14.89797813661580500000	     -0.28703276844377701000	     -5.40883066385569310000	    -11.99269412030245100000	     -2.52209756017712920000	     -0.00000000000002196139	      0.00000000000017084291	    -30.68323235324664500000	      1.89488846240307970000	      5.64541356596902060000
